<svg width="38" height="37" viewBox="0 0 38 37" fill="none" xmlns="http://www.w3.org/2000/svg">
<path d="M18.8334 0C8.61708 0 0.333374 8.28371 0.333374 18.5C0.333374 28.7163 8.61708 37 18.8334 37C29.0497 37 37.3334 28.7163 37.3334 18.5C37.3334 8.28371 29.0497 0 18.8334 0ZM19.7542 27.4692L19.7625 28.7782C19.7625 28.9599 19.6138 29.1127 19.4321 29.1127H18.2594C18.0777 29.1127 17.929 28.9641 17.929 28.7824V27.4857C14.2621 27.2132 12.5359 25.1237 12.3501 22.8525C12.3336 22.6584 12.4864 22.4932 12.6805 22.4932H14.5883C14.7493 22.4932 14.8897 22.6088 14.9145 22.7657C15.1251 24.0748 16.1451 25.0535 17.9744 25.2971V19.4044L16.9545 19.1442C14.7948 18.628 12.7383 17.2818 12.7383 14.4903C12.7383 11.4799 15.026 9.86116 17.9497 9.57623V8.2135C17.9497 8.03181 18.0983 7.88315 18.28 7.88315H19.4404C19.6221 7.88315 19.7708 8.03181 19.7708 8.2135V9.56384C22.5994 9.84877 24.722 11.5006 24.9698 14.0732C24.9904 14.2673 24.8376 14.4366 24.6394 14.4366H22.7853C22.6201 14.4366 22.4797 14.3127 22.459 14.1517C22.2939 12.9459 21.3276 11.9631 19.7542 11.7483V17.2942L20.8031 17.5378C23.479 18.1985 25.3001 19.4787 25.3001 22.3445C25.3001 25.454 22.9876 27.1884 19.7542 27.4692ZM15.3068 14.3003C15.3068 15.3492 15.9551 16.1627 17.3509 16.6665C17.545 16.745 17.7391 16.8069 17.9703 16.873V11.7525C16.4465 11.9465 15.3068 12.8013 15.3068 14.3003ZM20.1176 19.8834C20.002 19.8586 19.8864 19.8297 19.7542 19.7925V25.3136C21.5134 25.1567 22.7275 24.1904 22.7275 22.5717C22.7275 21.3039 22.0709 20.478 20.1176 19.8834Z" fill="#0D0B0B"/>
</svg>
