<svg width="38" height="37" viewBox="0 0 38 37" fill="none" xmlns="http://www.w3.org/2000/svg">
<path d="M18.8334 0C8.61708 0 0.333374 8.28371 0.333374 18.5C0.333374 28.7163 8.61708 37 18.8334 37C29.0497 37 37.3334 28.7163 37.3334 18.5C37.3334 8.28371 29.0497 0 18.8334 0ZM21.4556 15.5185C21.6373 15.5185 21.7859 15.6672 21.7859 15.8489V16.9721C21.7859 17.1538 21.6373 17.3025 21.4556 17.3025H15.8395C15.8271 17.4842 15.8271 17.6782 15.8271 17.8723V19.3589H21.4515C21.6332 19.3589 21.7818 19.5076 21.7818 19.6893V20.8125C21.7818 20.9942 21.6332 21.1429 21.4515 21.1429H16.0625C16.6943 23.7031 18.5939 25.2145 21.4225 25.2145C22.2443 25.2145 22.9546 25.165 23.5616 25.0452C23.764 25.0039 23.9539 25.1608 23.9539 25.3673V27.1347C23.9539 27.2916 23.8424 27.4238 23.6896 27.4568C23.033 27.5972 22.2732 27.6674 21.406 27.6674C16.8719 27.6674 13.8491 25.2393 13.1388 21.1429H11.8959C11.7142 21.1429 11.5655 20.9942 11.5655 20.8125V19.6893C11.5655 19.5076 11.7142 19.3589 11.8959 19.3589H12.9737V17.8352C12.9737 17.6535 12.9737 17.4718 12.9861 17.3066H11.8959C11.7142 17.3066 11.5655 17.1579 11.5655 16.9762V15.853C11.5655 15.6713 11.7142 15.5227 11.8959 15.5227H13.2049C14.0184 11.6327 17.004 9.33259 21.406 9.33259C22.2691 9.33259 23.033 9.41105 23.6896 9.55558C23.8424 9.58862 23.9498 9.72076 23.9498 9.87768V11.6451H23.9539C23.9539 11.8557 23.764 12.0085 23.5575 11.9672C22.9505 11.8474 22.2443 11.7855 21.4225 11.7855C18.7219 11.7855 16.8636 13.1689 16.1534 15.5185H21.4556Z" fill="#0D0B0B"/>
</svg>
