<svg width="30" height="30" viewBox="0 0 30 30" fill="none" xmlns="http://www.w3.org/2000/svg">
<path fill-rule="evenodd" clip-rule="evenodd" d="M0.333374 2.78404C0.333374 2.13409 0.591569 1.51075 1.05116 1.05116C1.51075 0.591572 2.13408 0.333377 2.78404 0.333377H27.2134C27.5355 0.332851 27.8545 0.395861 28.1522 0.5188C28.4499 0.641738 28.7205 0.82219 28.9484 1.04983C29.1763 1.27746 29.357 1.54781 29.4803 1.84539C29.6035 2.14297 29.6669 2.46194 29.6667 2.78404V27.2134C29.6671 27.5355 29.6039 27.8546 29.4808 28.1523C29.3577 28.4501 29.1771 28.7206 28.9494 28.9485C28.7217 29.1763 28.4512 29.357 28.1536 29.4803C27.8559 29.6035 27.5369 29.6669 27.2147 29.6667H2.78404C2.4621 29.6667 2.14332 29.6033 1.8459 29.48C1.54849 29.3568 1.27827 29.1762 1.05069 28.9485C0.823104 28.7207 0.642617 28.4504 0.519537 28.1529C0.396458 27.8555 0.333199 27.5366 0.333374 27.2147V2.78404ZM11.944 11.5174H15.916V13.512C16.4894 12.3654 17.956 11.3334 20.16 11.3334C24.3854 11.3334 25.3867 13.6174 25.3867 17.808V25.5707H21.1107V18.7627C21.1107 16.376 20.5374 15.0294 19.0814 15.0294C17.0614 15.0294 16.2214 16.4814 16.2214 18.7627V25.5707H11.944V11.5174ZM4.61071 25.388H8.88804V11.3334H4.61071V25.3867V25.388ZM9.50004 6.74938C9.50811 7.11561 9.44294 7.47976 9.30836 7.82046C9.17378 8.16117 8.97251 8.47156 8.71635 8.73342C8.46019 8.99528 8.15431 9.20334 7.81665 9.34539C7.47899 9.48743 7.11636 9.5606 6.75004 9.5606C6.38372 9.5606 6.02109 9.48743 5.68343 9.34539C5.34578 9.20334 5.03989 8.99528 4.78373 8.73342C4.52757 8.47156 4.3263 8.16117 4.19172 7.82046C4.05714 7.47976 3.99198 7.11561 4.00004 6.74938C4.01587 6.03052 4.31255 5.34643 4.82656 4.84363C5.34056 4.34082 6.03101 4.05927 6.75004 4.05927C7.46908 4.05927 8.15953 4.34082 8.67353 4.84363C9.18753 5.34643 9.48421 6.03052 9.50004 6.74938V6.74938Z" fill="#FDFDFD"/>
</svg>
