<svg width="126" height="42" viewBox="0 0 126 42" fill="none" xmlns="http://www.w3.org/2000/svg">
<path d="M43.5505 17.7025C42.3342 17.7025 41.235 17.4406 40.2531 16.9167C39.2825 16.393 38.5182 15.6743 37.9602 14.7605C37.4136 13.8354 37.1403 12.799 37.1403 11.651C37.1403 10.5033 37.4136 9.47239 37.9602 8.55855C38.5182 7.63371 39.2825 6.90909 40.2531 6.38539C41.235 5.86169 42.3342 5.59961 43.5505 5.59961C44.7667 5.59961 45.8601 5.86169 46.8308 6.38539C47.8017 6.90932 48.5659 7.63371 49.1238 8.55855C49.6816 9.47262 49.9606 10.5033 49.9606 11.6513C49.9606 12.799 49.6816 13.8354 49.1238 14.7605C48.5659 15.6743 47.8017 16.393 46.8308 16.9169C45.8601 17.4406 44.7667 17.7027 43.5505 17.7027V17.7025ZM43.5505 15.3955C44.2423 15.3955 44.867 15.2398 45.4249 14.9275C45.9829 14.6045 46.418 14.1587 46.7305 13.5903C47.0539 13.0219 47.2159 12.3754 47.2159 11.651C47.2159 10.9267 47.0539 10.2804 46.7305 9.71202C46.418 9.14387 45.9829 8.70356 45.4249 8.39154C44.867 8.06829 44.2423 7.90655 43.5505 7.90655C42.8586 7.90655 42.2339 8.06829 41.6758 8.39154C41.118 8.70356 40.6772 9.14365 40.3537 9.71202C40.0412 10.2804 39.885 10.9267 39.885 11.651C39.885 12.3754 40.0412 13.0219 40.3537 13.5903C40.6772 14.1584 41.118 14.6045 41.6758 14.9275C42.2339 15.2395 42.8586 15.3955 43.5505 15.3955ZM56.8018 8.37482C57.6386 8.37482 58.3974 8.56954 59.078 8.95969C59.7699 9.3386 60.311 9.87926 60.7016 10.5812C61.0922 11.2724 61.2874 12.0801 61.2874 13.0052C61.2874 13.9303 61.0922 14.7438 60.7016 15.4457C60.311 16.1369 59.7699 16.6773 59.078 17.0672C58.3974 17.4461 57.6386 17.6356 56.8018 17.6356C55.6526 17.6356 54.7489 17.2736 54.0905 16.549V20.745L51.4795 20.0566V8.50838H53.9734V9.54478C54.6206 8.76473 55.5633 8.37482 56.8018 8.37482ZM56.35 15.4959C57.0194 15.4959 57.5662 15.273 57.9903 14.8274C58.4253 14.3704 58.643 13.763 58.643 13.0052C58.643 12.2474 58.4253 11.6455 57.9903 11.2C57.5662 10.7429 57.0194 10.5145 56.35 10.5145C55.6806 10.5145 55.1282 10.7429 54.693 11.1997C54.2689 11.6455 54.057 12.2474 54.057 13.0052C54.057 13.763 54.2689 14.3706 54.693 14.8274C55.1282 15.273 55.6806 15.4959 56.35 15.4959ZM71.5208 13.0386C71.5208 13.0721 71.5041 13.306 71.4707 13.7408H64.6587C64.7814 14.298 65.0715 14.738 65.529 15.0613C65.9865 15.3843 66.5555 15.546 67.2362 15.546C67.7049 15.546 68.1177 15.4792 68.4746 15.3456C68.843 15.2006 69.1832 14.9777 69.4957 14.6766L70.8849 16.1813C70.0368 17.1508 68.7983 17.6356 67.1693 17.6356C66.1539 17.6356 65.2557 17.4409 64.4745 17.0505C63.6935 16.6496 63.091 16.0977 62.6669 15.3955C62.2429 14.6936 62.031 13.8968 62.031 13.0052C62.031 12.1248 62.2374 11.3335 62.6502 10.6314C63.0743 9.9182 63.6488 9.36678 64.3741 8.97664C65.1107 8.57527 65.9306 8.37482 66.8346 8.37482C67.7159 8.37482 68.5138 8.56427 69.2279 8.94296C69.942 9.32188 70.4998 9.86803 70.9016 10.5812C71.3144 11.2834 71.5208 12.1024 71.5208 13.0386ZM66.8513 10.3473C66.2598 10.3473 65.7633 10.5145 65.3615 10.8488C64.9599 11.1832 64.7146 11.64 64.6252 12.2194H69.0604C68.9713 11.6513 68.7257 11.2 68.3241 10.8655C67.9223 10.52 67.4313 10.3473 66.8513 10.3473ZM78.3972 8.37482C79.5131 8.37482 80.4114 8.70906 81.092 9.37778C81.7837 10.0463 82.1296 11.0382 82.1296 12.3532V17.502H79.5186V12.7543C79.5186 12.0412 79.3624 11.5118 79.0501 11.1663C78.7377 10.8098 78.2857 10.6314 77.6944 10.6314C77.036 10.6314 76.5116 10.8375 76.121 11.2499C75.7306 11.6513 75.5352 12.2529 75.5352 13.0551V17.5018H72.9243V8.50861H75.4181V9.56174C75.7641 9.18282 76.1936 8.89325 76.7068 8.69257C77.2202 8.48089 77.7837 8.37505 78.3972 8.37505V8.37482ZM47.0562 27.4776C47.7311 27.7032 48.2599 28.0835 48.6425 28.6182C49.025 29.1408 49.2161 29.7884 49.2161 30.5607C49.2161 31.6537 48.8111 32.4972 48.0012 33.0912C47.2024 33.6733 46.0327 33.9645 44.4913 33.9645H38.3829V21.4898H44.1539C45.5937 21.4898 46.6963 21.7808 47.4613 22.3629C48.2374 22.945 48.6255 23.7351 48.6255 24.7333C48.6255 25.339 48.4848 25.8797 48.2037 26.3548C47.9336 26.8302 47.5513 27.2043 47.0562 27.4776ZM41.0996 23.6639V26.6043H43.8164C44.4913 26.6043 45.0031 26.4796 45.352 26.2302C45.7007 25.9805 45.875 25.6123 45.875 25.1253C45.875 24.6382 45.7007 24.2758 45.352 24.0382C45.0031 23.7885 44.4913 23.6639 43.8164 23.6639H41.0996ZM44.2888 31.7902C45.0088 31.7902 45.5488 31.6656 45.9087 31.4161C46.2801 31.1666 46.4656 30.7804 46.4656 30.2576C46.4656 29.2242 45.7401 28.7073 44.2888 28.7073H41.0996V31.7902H44.2888ZM55.0824 34.107C54.1262 34.107 53.2657 33.899 52.5008 33.4832C51.7471 33.0555 51.1565 32.4674 50.729 31.719C50.3015 30.9705 50.0878 30.121 50.0878 29.1705C50.0878 28.22 50.3015 27.3706 50.729 26.6221C51.1565 25.8737 51.7471 25.2916 52.5008 24.8758C53.2657 24.4481 54.1262 24.2343 55.0824 24.2343C56.0387 24.2343 56.8936 24.4481 57.6473 24.8758C58.401 25.2916 58.9916 25.8737 59.4191 26.6221C59.8466 27.3706 60.0603 28.22 60.0603 29.1705C60.0603 30.121 59.8466 30.9705 59.4191 31.719C58.9916 32.4674 58.401 33.0555 57.6473 33.4832C56.8936 33.899 56.0387 34.107 55.0824 34.107ZM55.0824 31.8259C55.7576 31.8259 56.3088 31.5884 56.7362 31.113C57.1749 30.626 57.3942 29.9785 57.3942 29.1705C57.3942 28.3628 57.1749 27.7211 56.7362 27.246C56.3088 26.7589 55.7576 26.5152 55.0824 26.5152C54.4075 26.5152 53.8506 26.7589 53.4119 27.246C52.9732 27.7211 52.7539 28.3628 52.7539 29.1705C52.7539 29.9785 52.9732 30.626 53.4119 31.113C53.8506 31.5884 54.4075 31.8259 55.0824 31.8259ZM65.8023 34.107C64.8461 34.107 63.9856 33.899 63.2207 33.4832C62.4669 33.0555 61.8764 32.4674 61.4489 31.719C61.0214 30.9705 60.8076 30.121 60.8076 29.1705C60.8076 28.22 61.0214 27.3706 61.4489 26.6221C61.8764 25.8737 62.4669 25.2916 63.2207 24.8758C63.9856 24.4481 64.8461 24.2343 65.8023 24.2343C66.7585 24.2343 67.6135 24.4481 68.3672 24.8758C69.1209 25.2916 69.7115 25.8737 70.139 26.6221C70.5665 27.3706 70.7802 28.22 70.7802 29.1705C70.7802 30.121 70.5665 30.9705 70.139 31.719C69.7115 32.4674 69.1209 33.0555 68.3672 33.4832C67.6135 33.899 66.7585 34.107 65.8023 34.107ZM65.8023 31.8259C66.4774 31.8259 67.0286 31.5884 67.4561 31.113C67.8948 30.626 68.114 29.9785 68.114 29.1705C68.114 28.3628 67.8948 27.7211 67.4561 27.246C67.0286 26.7589 66.4774 26.5152 65.8023 26.5152C65.1274 26.5152 64.5705 26.7589 64.1318 27.246C63.693 27.7211 63.4736 28.3628 63.4736 29.1705C63.4736 29.9785 63.693 30.626 64.1318 31.113C64.5705 31.5884 65.1274 31.8259 65.8023 31.8259ZM78.0577 33.501C77.7991 33.7031 77.4784 33.8575 77.096 33.9645C76.7246 34.0596 76.3308 34.107 75.9146 34.107C74.8346 34.107 73.9966 33.8158 73.4003 33.2337C72.8154 32.6516 72.5229 31.7962 72.5229 30.6674V26.7291H71.1225V24.5906H72.5229V21.4898L75.1554 22.2561V24.5906H77.4165V26.7291H75.1554V30.6319C75.1554 31.0358 75.2509 31.3506 75.4422 31.5765C75.6447 31.7902 75.926 31.8972 76.2859 31.8972C76.7022 31.8972 77.0566 31.7783 77.3489 31.5407L78.0577 33.501ZM83.3051 34.107C82.3376 34.107 81.4659 33.899 80.6895 33.4832C79.9246 33.0555 79.3228 32.4674 78.8841 31.719C78.4566 30.9705 78.2428 30.121 78.2428 29.1705C78.2428 28.22 78.4566 27.3706 78.8841 26.6221C79.3228 25.8737 79.9246 25.2916 80.6895 24.8758C81.4659 24.4481 82.3376 24.2343 83.3051 24.2343C84.2613 24.2343 85.0938 24.4481 85.8026 24.8758C86.5224 25.2916 87.0457 25.8916 87.3719 26.6757L85.33 27.834C84.8576 26.9548 84.177 26.5152 83.2883 26.5152C82.602 26.5152 82.0338 26.7529 81.5839 27.2281C81.134 27.7032 80.909 28.3509 80.909 29.1705C80.909 29.9902 81.134 30.6379 81.5839 31.113C82.0338 31.5884 82.602 31.8259 83.2883 31.8259C84.1882 31.8259 84.8688 31.3863 85.33 30.5071L87.3719 31.6834C87.0457 32.4438 86.5224 33.0378 85.8026 33.4655C85.0938 33.893 84.2613 34.107 83.3051 34.107ZM92.2116 24.2341C93.618 24.2341 94.698 24.5906 95.4517 25.3035C96.2054 26.0045 96.5822 27.0677 96.5822 28.4933V33.9645H94.1186V32.7705C93.6235 33.6614 92.7012 34.107 91.3512 34.107C90.6536 34.107 90.0463 33.9821 89.5288 33.7327C89.0225 33.4832 88.6344 33.1386 88.3643 32.6992C88.0944 32.2596 87.9595 31.7606 87.9595 31.2021C87.9595 30.3112 88.2745 29.6102 88.9045 29.0993C89.5457 28.5884 90.5299 28.333 91.8575 28.333H93.9498C93.9498 27.727 93.7754 27.2638 93.4268 26.9429C93.0781 26.6102 92.5548 26.4439 91.8575 26.4439C91.3736 26.4439 90.8955 26.5271 90.4231 26.6936C89.9618 26.848 89.5682 27.0618 89.2419 27.3351L88.2969 25.3924C88.7918 25.0242 89.3824 24.739 90.0687 24.5372C90.7651 24.3353 91.4866 24.2333 92.2116 24.2341ZM92.0094 32.2358C92.4593 32.2358 92.8586 32.1288 93.2073 31.9151C93.5562 31.6892 93.8036 31.3625 93.9498 30.9348V29.9547H92.1443C91.0644 29.9547 90.5244 30.3288 90.5244 31.0775C90.5244 31.4337 90.6536 31.719 90.9125 31.9329C91.1823 32.1348 91.548 32.2358 92.0094 32.2358ZM110.254 24.2341C111.39 24.2341 112.29 24.5906 112.954 25.3035C113.628 26.0045 113.966 27.0618 113.966 28.4755V33.9645H111.334V28.9032C111.334 28.1428 111.182 27.5786 110.878 27.2102C110.585 26.8302 110.164 26.64 109.612 26.64C108.994 26.64 108.504 26.8537 108.144 27.2815C107.784 27.6975 107.604 28.3211 107.604 29.1527V33.9645H104.972V28.9032C104.972 27.3944 104.398 26.64 103.251 26.64C102.643 26.64 102.159 26.8537 101.8 27.2815C101.44 27.6975 101.26 28.3211 101.26 29.1527V33.9645H98.6271V24.3768H101.141V25.4817C101.474 25.0812 101.896 24.7639 102.373 24.555C102.868 24.3411 103.408 24.2343 103.993 24.2343C104.634 24.2343 105.214 24.3709 105.731 24.6439C106.249 24.9053 106.665 25.2916 106.98 25.8024C107.346 25.3081 107.826 24.9105 108.38 24.6442C108.954 24.3709 109.579 24.2341 110.254 24.2341ZM121.354 24.2341C122.198 24.2341 122.963 24.4421 123.649 24.8579C124.346 25.2618 124.892 25.838 125.286 26.5866C125.68 27.3232 125.876 28.1845 125.876 29.1705C125.876 30.1568 125.68 31.0239 125.286 31.7723C124.892 32.5091 124.346 33.0852 123.649 33.501C122.963 33.9049 122.198 34.107 121.354 34.107C120.195 34.107 119.284 33.721 118.62 32.9487V38.1246L115.988 37.4217V24.3768H118.502V25.4817C119.155 24.6501 120.105 24.2341 121.354 24.2341ZM120.898 31.8259C121.573 31.8259 122.125 31.5884 122.552 31.113C122.991 30.626 123.21 29.9785 123.21 29.1705C123.21 28.3628 122.991 27.7211 122.552 27.246C122.125 26.7589 121.573 26.5152 120.898 26.5152C120.224 26.5152 119.667 26.7589 119.228 27.246C118.8 27.7211 118.587 28.3628 118.587 29.1705C118.587 29.9785 118.8 30.626 119.228 31.113C119.667 31.5884 120.224 31.8259 120.898 31.8259Z" fill="white"/>
<path d="M10.5473 24.7228C16.3041 24.7228 20.9709 20.0559 20.9709 14.2991C20.9709 8.54231 16.3041 3.87549 10.5473 3.87549C4.79048 3.87549 0.123657 8.54231 0.123657 14.2991C0.123657 20.0559 4.79048 24.7228 10.5473 24.7228Z" fill="#0BF082"/>
<path fill-rule="evenodd" clip-rule="evenodd" d="M21.6393 14.3235H10.4248V34.809H21.6393C24.6651 34.809 27.118 32.3561 27.118 29.3303C27.118 27.2893 26.0018 25.5091 24.3467 24.5664C26.0018 23.6237 27.118 21.8432 27.118 19.8022C27.118 16.7764 24.6651 14.3235 21.6393 14.3235Z" fill="#047AF3"/>
<path fill-rule="evenodd" clip-rule="evenodd" d="M20.8851 14.3235C20.8851 20.0936 16.202 24.7712 10.4255 24.7712H10.4248V14.3235H20.8851Z" fill="#0DC0CB"/>
</svg>
