<svg width="33" height="33" viewBox="0 0 33 33" fill="none" xmlns="http://www.w3.org/2000/svg">
<path d="M18.6432 29.8303C18.9976 29.8303 19.3375 29.9709 19.5881 30.2212C19.8387 30.4716 19.9795 30.8111 19.9795 31.1651C19.9795 31.5192 19.8387 31.8587 19.5881 32.109C19.3375 32.3594 18.9976 32.5 18.6432 32.5C18.2888 32.5 17.9489 32.3594 17.6983 32.109C17.4478 31.8587 17.307 31.5192 17.307 31.1651C17.307 30.8111 17.4478 30.4716 17.6983 30.2212C17.9489 29.9709 18.2888 29.8303 18.6432 29.8303ZM13.9694 28.4974C14.1491 28.4904 14.3283 28.5198 14.4964 28.5837C14.6645 28.6476 14.8179 28.7447 14.9475 28.8693C15.0771 28.9938 15.1802 29.1432 15.2506 29.3085C15.321 29.4738 15.3573 29.6516 15.3573 29.8313C15.3573 30.0109 15.321 30.1887 15.2506 30.354C15.1802 30.5193 15.0771 30.6687 14.9475 30.7933C14.8179 30.9178 14.6645 31.0149 14.4964 31.0788C14.3283 31.1427 14.1491 31.1721 13.9694 31.1651C13.6242 31.1518 13.2976 31.0054 13.0581 30.7567C12.8186 30.508 12.6849 30.1763 12.6849 29.8313C12.6849 29.4862 12.8186 29.1545 13.0581 28.9058C13.2976 28.6571 13.6242 28.5107 13.9694 28.4974ZM23.3171 28.4974C23.4968 28.4904 23.676 28.5198 23.8441 28.5837C24.0122 28.6476 24.1656 28.7447 24.2952 28.8693C24.4248 28.9938 24.5279 29.1432 24.5983 29.3085C24.6687 29.4738 24.705 29.6516 24.705 29.8313C24.705 30.0109 24.6687 30.1887 24.5983 30.354C24.5279 30.5193 24.4248 30.6687 24.2952 30.7933C24.1656 30.9178 24.0122 31.0149 23.8441 31.0788C23.676 31.1427 23.4968 31.1721 23.3171 31.1651C22.9719 31.1518 22.6453 31.0054 22.4058 30.7567C22.1663 30.508 22.0325 30.1763 22.0325 29.8313C22.0325 29.4862 22.1663 29.1545 22.4058 28.9058C22.6453 28.6571 22.9719 28.5107 23.3171 28.4974ZM18.6432 8.48433C23.5815 8.48433 26.3822 11.6324 26.7889 15.4369H26.9131C30.0904 15.4369 32.6667 17.9125 32.6667 20.9665C32.6667 24.0205 30.0904 26.4961 26.9131 26.4961H10.3733C7.196 26.4961 4.61968 24.0205 4.61968 20.9665C4.61968 17.9125 7.196 15.4369 10.3733 15.4369H10.4975C10.9082 11.6064 13.7049 8.48433 18.6432 8.48433ZM4.22501 13.8879C4.3022 14.1095 4.29894 14.3512 4.21581 14.5707C4.13268 14.7902 3.97497 14.9735 3.77025 15.0886L3.60397 15.1607L1.99928 15.713C1.76246 15.7958 1.50318 15.7868 1.27269 15.6878C1.04221 15.5888 0.857318 15.407 0.75458 15.1783C0.651843 14.9496 0.638743 14.6908 0.717871 14.453C0.797 14.2151 0.962595 14.0156 1.18191 13.8939L1.34618 13.8218L2.95288 13.2695C3.20393 13.1834 3.47892 13.2004 3.71744 13.3167C3.95597 13.433 4.13852 13.6392 4.22501 13.8899V13.8879ZM14.4762 5.48237C15.1413 5.80658 15.7283 6.22886 16.2252 6.72318C12.6952 7.45166 10.155 9.79118 9.12724 13.0393L8.99702 13.4876L8.90487 13.8618L8.57431 13.9219C7.68558 14.1047 6.83722 14.4464 6.07011 14.9305C5.29576 13.7256 4.93705 12.3007 5.04865 10.8732C5.16024 9.44566 5.73603 8.09373 6.68825 7.02347C7.64046 5.95322 8.91687 5.22335 10.3229 4.94512C11.7289 4.66689 13.1875 4.85556 14.4762 5.48237ZM2.45003 5.82259L2.61631 5.88664L4.14288 6.62912C4.36792 6.73841 4.54387 6.92788 4.6361 7.16025C4.72833 7.39262 4.73015 7.65106 4.64122 7.88471C4.55229 8.11836 4.37904 8.3103 4.15556 8.42275C3.93208 8.53521 3.67456 8.56003 3.43368 8.49234L3.2654 8.42829L1.73884 7.68581C1.51379 7.57652 1.33784 7.38705 1.24562 7.15468C1.15339 6.92231 1.15156 6.66387 1.24049 6.43022C1.32943 6.19657 1.50268 6.00463 1.72616 5.89218C1.94964 5.77972 2.20715 5.7549 2.44803 5.82259H2.45003ZM16.6198 1.06949C16.8307 1.1723 16.9988 1.34583 17.0948 1.5598C17.1907 1.77377 17.2084 2.0146 17.1447 2.24026L17.0806 2.40837L16.3373 3.93336C16.2279 4.15818 16.0383 4.33395 15.8057 4.42608C15.5731 4.51821 15.3143 4.52004 15.0805 4.4312C14.8466 4.34235 14.6544 4.16928 14.5419 3.94603C14.4293 3.72278 14.4045 3.46553 14.4722 3.2249L14.5363 3.05479L15.2816 1.52979C15.3981 1.29164 15.6045 1.10941 15.8554 1.02311C16.1063 0.936811 16.3812 0.953492 16.6198 1.06949ZM9.02707 1.00545L9.1012 1.16956L9.65413 2.77461C9.7354 3.01087 9.72528 3.26896 9.62573 3.49815C9.52618 3.72733 9.34441 3.91102 9.11616 4.01311C8.88791 4.11521 8.62969 4.12831 8.39226 4.04986C8.15482 3.9714 7.95536 3.80706 7.83307 3.58914L7.76095 3.42503L7.20802 1.82198C7.12801 1.58628 7.13881 1.32924 7.2383 1.10106C7.33779 0.872876 7.51884 0.689922 7.7461 0.587911C7.97335 0.4859 8.23051 0.472155 8.46737 0.54936C8.70422 0.626564 8.90378 0.789176 9.02707 1.00545Z" fill="#0D0B0B"/>
</svg>
